<svg xmlns="http://www.w3.org/2000/svg" xmlns:xlink="http://www.w3.org/1999/xlink" width="256" height="256" viewBox="0 0 256 256">
  <defs>
    <clipPath id="clip-ZZZ_-_Logo">
      <rect width="256" height="256"/>
    </clipPath>
  </defs>
  <g id="ZZZ_-_Logo" data-name="ZZZ - Logo" clip-path="url(#clip-ZZZ_-_Logo)">
    <rect width="256" height="256" fill="rgba(0,0,0,0)"/>
    <g id="Logo_Zenless_Zone_Zero" transform="translate(-7022.881 -2217.322)">
      <path id="Path" d="M7060.141,2217.015l177.206,4,7.351,36.752-27.488,41.333h35.242l9.59,46.951-22.639,36.691h29.554l9.925,47.286L7226,2463.046l-173.831,10.583-6.089-46.974,26.966-37.115-33.2.87-5.219-45.234,26.386-34.65h-31.75l-6.379-45.813Z" fill="#fff"/>
      <path id="ZZZ" d="M7061.409,2223.2l159.188,3.48,4.5,23.922L7131.8,2392.543l37.767-.726,31.916-53.289H7177.8l23.689-32.538h34.923l6.234,34.36-26.241,48.713,35.666-.725,6.523,32.621-166,7.394-5.655-35.81,35.811-53.063h-43.929l-5.22-34.215,36.245-50.888,44,1.078-34.974,51.328h25.816l34.808-51.328h-25.65l-44-1.078h-44.073Z" transform="translate(9.317 1.496)" fill="#040404"/>
    </g>
  </g>
</svg>
