<svg xmlns="http://www.w3.org/2000/svg" xmlns:xlink="http://www.w3.org/1999/xlink" width="410" height="410" viewBox="0 0 410 410">
  <defs>
    <filter id="Ellipse_5" x="22" y="22" width="366" height="366" filterUnits="userSpaceOnUse">
      <feOffset input="SourceAlpha"/>
      <feGaussianBlur stdDeviation="17" result="blur"/>
      <feFlood flood-color="#3d91ff"/>
      <feComposite operator="in" in2="blur"/>
      <feComposite in="SourceGraphic"/>
    </filter>
    <filter id="Ellipse_7" x="55" y="55" width="300" height="300" filterUnits="userSpaceOnUse">
      <feOffset input="SourceAlpha"/>
      <feGaussianBlur stdDeviation="6" result="blur-2"/>
      <feFlood flood-color="#b2d3ff" flood-opacity="0.741"/>
      <feComposite operator="in" in2="blur-2"/>
      <feComposite in="SourceGraphic"/>
    </filter>
    <filter id="circle_lb" x="98.5" y="98.5" width="213" height="213" filterUnits="userSpaceOnUse">
      <feOffset input="SourceAlpha"/>
      <feGaussianBlur stdDeviation="2.5" result="blur-3"/>
      <feFlood flood-color="#c1e8ff" flood-opacity="0.529"/>
      <feComposite operator="in" in2="blur-3"/>
      <feComposite in="SourceGraphic"/>
    </filter>
    <filter id="circle_b" x="123.5" y="123.5" width="163" height="163" filterUnits="userSpaceOnUse">
      <feOffset input="SourceAlpha"/>
      <feGaussianBlur stdDeviation="2.5" result="blur-4"/>
      <feFlood flood-color="#c1e8ff" flood-opacity="0.561"/>
      <feComposite operator="in" in2="blur-4"/>
      <feComposite in="SourceGraphic"/>
    </filter>
    <filter id="circle_db" x="141.911" y="141.911" width="126.178" height="126.178" filterUnits="userSpaceOnUse">
      <feOffset input="SourceAlpha"/>
      <feGaussianBlur stdDeviation="2.5" result="blur-5"/>
      <feFlood flood-color="#428ad3"/>
      <feComposite operator="in" in2="blur-5"/>
      <feComposite in="SourceGraphic"/>
    </filter>
    <filter id="shine_circle" x="155" y="168" width="158" height="158" filterUnits="userSpaceOnUse">
      <feOffset dx="-4" dy="-7" input="SourceAlpha"/>
      <feGaussianBlur stdDeviation="16" result="blur-6"/>
      <feFlood flood-color="#75bfff"/>
      <feComposite operator="in" in2="blur-6"/>
      <feComposite in="SourceGraphic"/>
    </filter>
    <clipPath id="clip-Fairy_1">
      <rect width="410" height="410"/>
    </clipPath>
  </defs>
  <g id="Fairy_1" data-name="Fairy – 1" clip-path="url(#clip-Fairy_1)">
    <g id="circle_bg" transform="translate(14 14)" fill="#08397a">
      <path d="M 191 381 C 178.1080932617188 381 165.2245483398438 379.7012634277344 152.7073059082031 377.1398620605469 C 140.5086975097656 374.6436462402344 128.5097045898438 370.9190063476562 117.0437469482422 366.0692443847656 C 105.7856521606445 361.3074951171875 94.92714691162109 355.4136962890625 84.7698974609375 348.5516052246094 C 74.70884704589844 341.7544555664062 65.24784851074219 333.9484558105469 56.64970016479492 325.3503112792969 C 48.05155181884766 316.7521362304688 40.24554824829102 307.2911376953125 33.44839859008789 297.2301025390625 C 26.58629989624023 287.0728454589844 20.6924991607666 276.21435546875 15.93074989318848 264.9562377929688 C 11.08100032806396 253.4902954101562 7.356349945068359 241.4913024902344 4.86014986038208 229.2926940917969 C 2.298749923706055 216.7754516601562 1 203.8919067382812 1 191 C 1 178.1080932617188 2.298749923706055 165.2245483398438 4.86014986038208 152.7073059082031 C 7.356349945068359 140.5086975097656 11.08100032806396 128.5097045898438 15.93074989318848 117.0437469482422 C 20.6924991607666 105.7856521606445 26.58629989624023 94.92714691162109 33.44839859008789 84.7698974609375 C 40.24554824829102 74.70884704589844 48.05155181884766 65.24784851074219 56.64970016479492 56.64970016479492 C 65.24784851074219 48.05155181884766 74.70884704589844 40.24554824829102 84.7698974609375 33.44839859008789 C 94.92714691162109 26.58629989624023 105.7856521606445 20.6924991607666 117.0437469482422 15.93074989318848 C 128.5097045898438 11.08100032806396 140.5086975097656 7.356349945068359 152.7073059082031 4.86014986038208 C 165.2245483398438 2.298749923706055 178.1080932617188 1 191 1 C 203.8919067382812 1 216.7754516601562 2.298749923706055 229.2926940917969 4.86014986038208 C 241.4913024902344 7.356349945068359 253.4902954101562 11.08100032806396 264.9562377929688 15.93074989318848 C 276.21435546875 20.6924991607666 287.0728454589844 26.58629989624023 297.2301025390625 33.44839859008789 C 307.2911376953125 40.24554824829102 316.7521362304688 48.05155181884766 325.3503112792969 56.64970016479492 C 333.9484558105469 65.24784851074219 341.7544555664062 74.70884704589844 348.5516052246094 84.7698974609375 C 355.4136962890625 94.92714691162109 361.3074951171875 105.7856521606445 366.0692443847656 117.0437469482422 C 370.9190063476562 128.5097045898438 374.6436462402344 140.5086975097656 377.1398620605469 152.7073059082031 C 379.7012634277344 165.2245483398438 381 178.1080932617188 381 191 C 381 203.8919067382812 379.7012634277344 216.7754516601562 377.1398620605469 229.2926940917969 C 374.6436462402344 241.4913024902344 370.9190063476562 253.4902954101562 366.0692443847656 264.9562377929688 C 361.3074951171875 276.21435546875 355.4136962890625 287.0728454589844 348.5516052246094 297.2301025390625 C 341.7544555664062 307.2911376953125 333.9484558105469 316.7521362304688 325.3503112792969 325.3503112792969 C 316.7521362304688 333.9484558105469 307.2911376953125 341.7544555664062 297.2301025390625 348.5516052246094 C 287.0728454589844 355.4136962890625 276.21435546875 361.3074951171875 264.9562377929688 366.0692443847656 C 253.4902954101562 370.9190063476562 241.4913024902344 374.6436462402344 229.2926940917969 377.1398620605469 C 216.7754516601562 379.7012634277344 203.8919067382812 381 191 381 Z" stroke="none"/>
      <path d="M 191 2 C 178.17529296875 2 165.3592071533203 3.291900634765625 152.9078063964844 5.83984375 C 140.7738494873047 8.32281494140625 128.8385009765625 12.02774047851562 117.4332885742188 16.85174560546875 C 106.2347106933594 21.58834838867188 95.43350219726562 27.4510498046875 85.3297119140625 34.27703857421875 C 75.3214111328125 41.03851318359375 65.90994262695312 48.8037109375 57.3568115234375 57.3568115234375 C 48.8037109375 65.90994262695312 41.03851318359375 75.3214111328125 34.27703857421875 85.3297119140625 C 27.4510498046875 95.43350219726562 21.58834838867188 106.2347106933594 16.85174560546875 117.4332885742188 C 12.02774047851562 128.8385009765625 8.32281494140625 140.7738494873047 5.83984375 152.9078063964844 C 3.291900634765625 165.3592071533203 2 178.17529296875 2 191 C 2 203.82470703125 3.291900634765625 216.6407928466797 5.83984375 229.0921936035156 C 8.32281494140625 241.2261505126953 12.02774047851562 253.1614990234375 16.85174560546875 264.5667114257812 C 21.58834838867188 275.7652893066406 27.4510498046875 286.5664978027344 34.27703857421875 296.6702880859375 C 41.03851318359375 306.6785888671875 48.8037109375 316.0900573730469 57.3568115234375 324.6431884765625 C 65.90994262695312 333.1962890625 75.3214111328125 340.9614868164062 85.3297119140625 347.7229614257812 C 95.43350219726562 354.5489501953125 106.2347106933594 360.4116516113281 117.4332885742188 365.1482543945312 C 128.8385009765625 369.9722595214844 140.7738494873047 373.6771850585938 152.9078063964844 376.16015625 C 165.3592071533203 378.7080993652344 178.17529296875 380 191 380 C 203.82470703125 380 216.6407928466797 378.7080993652344 229.0921936035156 376.16015625 C 241.2261505126953 373.6771850585938 253.1614990234375 369.9722595214844 264.5667114257812 365.1482543945312 C 275.7652893066406 360.4116516113281 286.5664978027344 354.5489501953125 296.6702880859375 347.7229614257812 C 306.6785888671875 340.9614868164062 316.0900573730469 333.1962890625 324.6431884765625 324.6431884765625 C 333.1962890625 316.0900573730469 340.9614868164062 306.6785888671875 347.7229614257812 296.6702880859375 C 354.5489501953125 286.5664978027344 360.4116516113281 275.7652893066406 365.1482543945312 264.5667114257812 C 369.9722595214844 253.1614990234375 373.6771850585938 241.2261505126953 376.16015625 229.0921936035156 C 378.7080993652344 216.6407928466797 380 203.82470703125 380 191 C 380 178.17529296875 378.7080993652344 165.3592071533203 376.16015625 152.9078063964844 C 373.6771850585938 140.7738494873047 369.9722595214844 128.8385009765625 365.1482543945312 117.4332885742188 C 360.4116516113281 106.2347106933594 354.5489501953125 95.43350219726562 347.7229614257812 85.3297119140625 C 340.9614868164062 75.3214111328125 333.1962890625 65.90994262695312 324.6431884765625 57.3568115234375 C 316.0900573730469 48.8037109375 306.6785888671875 41.03851318359375 296.6702880859375 34.27703857421875 C 286.5664978027344 27.4510498046875 275.7652893066406 21.58834838867188 264.5667114257812 16.85174560546875 C 253.1614990234375 12.02774047851562 241.2261505126953 8.32281494140625 229.0921936035156 5.83984375 C 216.6407928466797 3.291900634765625 203.82470703125 2 191 2 M 191 0 C 296.4863891601562 0 382 85.51361083984375 382 191 C 382 296.4863891601562 296.4863891601562 382 191 382 C 85.51361083984375 382 0 296.4863891601562 0 191 C 0 85.51361083984375 85.51361083984375 0 191 0 Z" stroke="none" fill="#6ab0f9"/>
    </g>
    <path id="wheel" d="M79.311,334.385l-13.675-24.48a50.764,50.764,0,0,0-3.9-5.674A152.778,152.778,0,0,1,0,181.42a154.558,154.558,0,0,1,1.251-19.657c-.39-7.446-.6-17.128-1.614-21.662l-6.176-27.651a9.778,9.778,0,0,1,5.064-10.861L23.677,88.547c5.773-2.993,15.546-11.587,20.16-14.331A152.525,152.525,0,0,1,153,28.42q6.382,0,12.635.514c7.551-.57,19.451-.754,24.589-1.923l27.343-6.218a10,10,0,0,1,10.948,4.874L242.19,50.148C245.02,55.215,252.473,63.43,256,68.286A152.591,152.591,0,0,1,306,181.42q0,2.653-.09,5.288c1.163,5.83,1.382,22.821,2.955,29.219l6.694,27.229a10,10,0,0,1-4.683,11.031l-24.238,14.1c-5.854,3.405-15.882,13.177-19.989,15.567A153.278,153.278,0,0,1,126,332.045a62.054,62.054,0,0,0-8.4,1L90.258,339.26a9.995,9.995,0,0,1-10.948-4.874Z" transform="translate(52 23.58)" fill="#002c6a"/>
    <g id="circle_shining_white" transform="translate(-755 -294)">
      <g transform="matrix(1, 0, 0, 1, 755, 294)" filter="url(#Ellipse_5)">
        <circle id="Ellipse_5-2" data-name="Ellipse 5" cx="132" cy="132" r="132" transform="translate(73 73)" fill="#f0e7e1"/>
      </g>
      <g transform="matrix(1, 0, 0, 1, 755, 294)" filter="url(#Ellipse_7)">
        <circle id="Ellipse_7-2" data-name="Ellipse 7" cx="132" cy="132" r="132" transform="translate(73 73)" fill="#f0e7e1"/>
      </g>
    </g>
    <g transform="matrix(1, 0, 0, 1, 0, 0)" filter="url(#circle_lb)">
      <circle id="circle_lb-2" data-name="circle_lb" cx="99" cy="99" r="99" transform="translate(106 106)" fill="#9db4dd"/>
    </g>
    <g transform="matrix(1, 0, 0, 1, 0, 0)" filter="url(#circle_b)">
      <g id="circle_b-2" data-name="circle_b" transform="translate(131 131)" fill="#1a67b5" stroke="#b1dcff" stroke-width="2.5">
        <circle cx="74" cy="74" r="74" stroke="none"/>
        <circle cx="74" cy="74" r="72.75" fill="none"/>
      </g>
    </g>
    <g transform="matrix(1, 0, 0, 1, 0, 0)" filter="url(#circle_db)">
      <g id="circle_db-2" data-name="circle_db" transform="translate(149.41 149.41)" fill="#0a3165">
        <path d="M 55.58921813964844 110.1784362792969 C 48.21928024291992 110.1784362792969 41.0703239440918 108.7352523803711 34.3409423828125 105.8889541625977 C 31.10652542114258 104.5209121704102 27.98684883117676 102.8275909423828 25.06857109069824 100.8560485839844 C 22.17775726318359 98.90304565429688 19.45934104919434 96.66014099121094 16.98881721496582 94.18962097167969 C 14.51829528808594 91.71909332275391 12.27538776397705 89.00067901611328 10.3223876953125 86.10986328125 C 8.350849151611328 83.19158935546875 6.657526016235352 80.07190704345703 5.289479732513428 76.83749389648438 C 2.443187475204468 70.10810852050781 1.00000274181366 62.95915603637695 1.00000274181366 55.58921813964844 C 1.00000274181366 48.21928024291992 2.443187475204468 41.0703239440918 5.289479732513428 34.3409423828125 C 6.657526016235352 31.10652542114258 8.350849151611328 27.98684883117676 10.3223876953125 25.06857109069824 C 12.27538776397705 22.17775726318359 14.51829528808594 19.45934104919434 16.98881721496582 16.98881721496582 C 19.45934104919434 14.51829528808594 22.17775726318359 12.27538776397705 25.06857109069824 10.3223876953125 C 27.98684883117676 8.350849151611328 31.10652542114258 6.657526016235352 34.3409423828125 5.289479732513428 C 41.0703239440918 2.443187475204468 48.21928024291992 1.00000274181366 55.58921813964844 1.00000274181366 C 62.95915603637695 1.00000274181366 70.10810852050781 2.443187475204468 76.83749389648438 5.289479732513428 C 80.07190704345703 6.657526016235352 83.19158935546875 8.350849151611328 86.10986328125 10.3223876953125 C 89.00067901611328 12.27538776397705 91.71909332275391 14.51829528808594 94.18962097167969 16.98881721496582 C 96.66014099121094 19.45934104919434 98.90304565429688 22.17775726318359 100.8560485839844 25.06857109069824 C 102.8275909423828 27.98684883117676 104.5209121704102 31.10652542114258 105.8889541625977 34.3409423828125 C 108.7352523803711 41.0703239440918 110.1784362792969 48.21928024291992 110.1784362792969 55.58921813964844 C 110.1784362792969 62.95915603637695 108.7352523803711 70.10810852050781 105.8889541625977 76.83749389648438 C 104.5209121704102 80.07190704345703 102.8275909423828 83.19158935546875 100.8560485839844 86.10986328125 C 98.90304565429688 89.00067901611328 96.66014099121094 91.71909332275391 94.18962097167969 94.18962097167969 C 91.71909332275391 96.66014099121094 89.00067901611328 98.90304565429688 86.10986328125 100.8560485839844 C 83.19158935546875 102.8275909423828 80.07190704345703 104.5209121704102 76.83749389648438 105.8889541625977 C 70.10810852050781 108.7352523803711 62.95915603637695 110.1784362792969 55.58921813964844 110.1784362792969 Z" stroke="none"/>
        <path d="M 55.58921813964844 2 C 48.35383224487305 2 41.3359375 3.416618347167969 34.73049163818359 6.210494995117188 C 31.5555419921875 7.553375244140625 28.49314117431641 9.215621948242188 25.62837219238281 11.15101623535156 C 22.79029846191406 13.06837463378906 20.12143707275391 15.27040100097656 17.6959228515625 17.6959228515625 C 15.27040100097656 20.12143707275391 13.06837463378906 22.79029846191406 11.15101623535156 25.62837219238281 C 9.215621948242188 28.49314117431641 7.553375244140625 31.5555419921875 6.210494995117188 34.73049163818359 C 3.416618347167969 41.3359375 2 48.35383224487305 2 55.58921813964844 C 2 62.82460403442383 3.416618347167969 69.84249877929688 6.210494995117188 76.44793701171875 C 7.553375244140625 79.62289428710938 9.215621948242188 82.68529510498047 11.15101623535156 85.55006408691406 C 13.06837463378906 88.38813781738281 15.27040100097656 91.0570068359375 17.6959228515625 93.48251342773438 C 20.12143707275391 95.90803527832031 22.79029846191406 98.11006164550781 25.62837219238281 100.0274200439453 C 28.49314117431641 101.9628143310547 31.5555419921875 103.6250610351562 34.73049163818359 104.9679412841797 C 41.3359375 107.7618179321289 48.35383224487305 109.1784362792969 55.58921813964844 109.1784362792969 C 62.82460403442383 109.1784362792969 69.84249877929688 107.7618179321289 76.44793701171875 104.9679412841797 C 79.62289428710938 103.6250610351562 82.68529510498047 101.9628143310547 85.55006408691406 100.0274200439453 C 88.38813781738281 98.11006164550781 91.0570068359375 95.90803527832031 93.48251342773438 93.48251342773438 C 95.90803527832031 91.0570068359375 98.11006164550781 88.38813781738281 100.0274200439453 85.55006408691406 C 101.9628143310547 82.68529510498047 103.6250610351562 79.62289428710938 104.9679412841797 76.44793701171875 C 107.7618179321289 69.84249877929688 109.1784362792969 62.82460403442383 109.1784362792969 55.58921813964844 C 109.1784362792969 48.35383224487305 107.7618179321289 41.3359375 104.9679412841797 34.73049163818359 C 103.6250610351562 31.5555419921875 101.9628143310547 28.49314117431641 100.0274200439453 25.62837219238281 C 98.11006164550781 22.79029846191406 95.90803527832031 20.12143707275391 93.48251342773438 17.6959228515625 C 91.0570068359375 15.27040100097656 88.38813781738281 13.06837463378906 85.55006408691406 11.15101623535156 C 82.68529510498047 9.215621948242188 79.62289428710938 7.553375244140625 76.44793701171875 6.210494995117188 C 69.84249877929688 3.416618347167969 62.82460403442383 2 55.58921813964844 2 M 55.58921813964844 0 C 86.29029846191406 0 111.1784362792969 24.88813781738281 111.1784362792969 55.58921813964844 C 111.1784362792969 86.29029846191406 86.29029846191406 111.1784362792969 55.58921813964844 111.1784362792969 C 24.88813781738281 111.1784362792969 0 86.29029846191406 0 55.58921813964844 C 0 24.88813781738281 24.88813781738281 0 55.58921813964844 0 Z" stroke="none" fill="#4287cf"/>
      </g>
    </g>
    <g transform="matrix(1, 0, 0, 1, 0, 0)" filter="url(#shine_circle)">
      <circle id="shine_circle-2" data-name="shine_circle" cx="31" cy="31" r="31" transform="translate(207 223)" fill="#efe4e0"/>
    </g>
  </g>
</svg>
